<svg width="294" height="69" viewBox="0 0 294 69" fill="none" xmlns="http://www.w3.org/2000/svg">
<path d="M293.798 35.2685C293.798 64.7756 228.029 61.2582 146.899 61.2582C65.769 61.2582 0 68.8791 0 35.2685C0 -4.39995 65.769 9.27886 146.899 9.27886C228.029 9.27886 298.263 -1.46873 293.798 35.2685Z" fill="#1297FD"/>
<path d="M55.818 49V23.7483H71.2433V29.0043H61.6454V49H55.818ZM82.9461 26.8905C85.536 24.3387 88.7543 23.0628 92.6011 23.0628C96.4479 23.0628 99.6472 24.3387 102.199 26.8905C104.789 29.4043 106.084 32.5845 106.084 36.4313C106.084 40.2781 104.789 43.4774 102.199 46.0292C99.6472 48.543 96.4479 49.7998 92.6011 49.7998C88.7543 49.7998 85.536 48.543 82.9461 46.0292C80.3943 43.4774 79.1183 40.2781 79.1183 36.4313C79.1183 32.5845 80.3943 29.4043 82.9461 26.8905ZM87.3451 42.5443C88.8305 43.8773 90.5825 44.5438 92.6011 44.5438C94.6197 44.5438 96.3527 43.8773 97.8 42.5443C99.2854 41.1731 100.028 39.1545 100.028 36.4884C100.028 33.7462 99.2854 31.7085 97.8 30.3755C96.3527 29.0043 94.6197 28.3188 92.6011 28.3188C90.5825 28.3188 88.8305 29.0043 87.3451 30.3755C85.8978 31.7085 85.1742 33.7462 85.1742 36.4884C85.1742 39.1545 85.8978 41.1731 87.3451 42.5443ZM121.381 49V29.0043H113.954V23.7483H134.635V29.0043H127.208V49H121.381ZM146.343 26.8905C148.933 24.3387 152.151 23.0628 155.998 23.0628C159.845 23.0628 163.044 24.3387 165.596 26.8905C168.186 29.4043 169.481 32.5845 169.481 36.4313C169.481 40.2781 168.186 43.4774 165.596 46.0292C163.044 48.543 159.845 49.7998 155.998 49.7998C152.151 49.7998 148.933 48.543 146.343 46.0292C143.791 43.4774 142.515 40.2781 142.515 36.4313C142.515 32.5845 143.791 29.4043 146.343 26.8905ZM150.742 42.5443C152.227 43.8773 153.979 44.5438 155.998 44.5438C158.017 44.5438 159.75 43.8773 161.197 42.5443C162.682 41.1731 163.425 39.1545 163.425 36.4884C163.425 33.7462 162.682 31.7085 161.197 30.3755C159.75 29.0043 158.017 28.3188 155.998 28.3188C153.979 28.3188 152.227 29.0043 150.742 30.3755C149.295 31.7085 148.571 33.7462 148.571 36.4884C148.571 39.1545 149.295 41.1731 150.742 42.5443ZM180.436 23.7483H190.32C192.871 23.7483 194.795 24.2435 196.09 25.2337C197.613 26.4525 198.375 28.0712 198.375 30.0898C198.375 32.4131 197.385 34.0509 195.404 35.003C196.813 35.3077 197.956 35.879 198.832 36.717C200.127 37.8977 200.774 39.5163 200.774 41.573C200.774 43.9725 199.86 45.8959 198.032 47.3432C196.585 48.4477 194.642 49 192.205 49H180.436V23.7483ZM186.263 33.5748H189.291C190.32 33.5748 191.1 33.4034 191.634 33.0606C192.395 32.5655 192.776 31.8799 192.776 31.0039C192.776 30.166 192.433 29.5185 191.748 29.0615C191.253 28.7187 190.396 28.5473 189.177 28.5473H186.263V33.5748ZM186.263 44.201H190.662C191.995 44.201 193.024 43.9535 193.747 43.4583C194.547 42.849 194.947 42.1063 194.947 41.2303C194.947 40.3162 194.566 39.5925 193.805 39.0593C193.195 38.6023 192.205 38.3737 190.834 38.3737H186.263V44.201ZM214.315 26.8905C216.905 24.3387 220.123 23.0628 223.97 23.0628C227.817 23.0628 231.016 24.3387 233.568 26.8905C236.158 29.4043 237.453 32.5845 237.453 36.4313C237.453 40.2781 236.158 43.4774 233.568 46.0292C231.016 48.543 227.817 49.7998 223.97 49.7998C220.123 49.7998 216.905 48.543 214.315 46.0292C211.763 43.4774 210.487 40.2781 210.487 36.4313C210.487 32.5845 211.763 29.4043 214.315 26.8905ZM218.714 42.5443C220.199 43.8773 221.951 44.5438 223.97 44.5438C225.988 44.5438 227.721 43.8773 229.169 42.5443C230.654 41.1731 231.397 39.1545 231.397 36.4884C231.397 33.7462 230.654 31.7085 229.169 30.3755C227.721 29.0043 225.988 28.3188 223.97 28.3188C221.951 28.3188 220.199 29.0043 218.714 30.3755C217.267 31.7085 216.543 33.7462 216.543 36.4884C216.543 39.1545 217.267 41.1731 218.714 42.5443Z" fill="white"/>
</svg>
