<svg width="331" height="202" viewBox="0 0 331 202" fill="none" xmlns="http://www.w3.org/2000/svg">
<path fill-rule="evenodd" clip-rule="evenodd" d="M314.522 53.2193C319.978 52.6093 325.415 51.9551 330.825 51.2545C267.257 32.4478 258.644 21.4752 246.497 5.99961C244.988 4.07712 243.425 2.08513 241.695 0C230.046 5.82438 120.847 16.0594 83.1076 0C77.8883 9.23418 54.2006 30.513 0 51.2545C3.05709 51.634 6.37565 52.0218 9.93901 52.4131C8.82937 53.6502 8.15442 55.2853 8.15442 57.078V180.555C5.32466 182.68 3.49422 186.064 3.49422 189.875C3.49422 196.309 8.70954 201.524 15.143 201.524C21.5764 201.524 26.7917 196.309 26.7917 189.875C26.7917 186.065 24.9619 182.681 22.1329 180.556V57.078C22.1329 55.8028 21.7914 54.6073 21.1948 53.578C23.9157 53.8438 26.7407 54.1091 29.6646 54.3724C29.3149 55.2046 29.1216 56.1188 29.1216 57.078V185.214C29.1216 189.074 32.2508 192.204 36.1109 192.204C39.9709 192.204 43.1001 189.074 43.1001 185.214V57.078C43.1001 56.5338 43.0379 56.004 42.9202 55.4955C45.2852 55.6838 47.7003 55.87 50.1634 56.0533C50.1142 56.3878 50.0888 56.7299 50.0888 57.078V185.214C50.0888 189.074 53.218 192.204 57.078 192.204C60.9381 192.204 64.0673 189.074 64.0673 185.214V57.078L64.0671 57.0225C66.3644 57.1721 68.6954 57.3187 71.0587 57.462V185.214C71.0587 189.074 74.1879 192.204 78.048 192.204C81.9081 192.204 85.0372 189.074 85.0372 185.214V58.2488C87.3413 58.3686 89.6709 58.4849 92.025 58.5973V185.214C92.025 189.074 95.1542 192.204 99.0143 192.204C102.874 192.204 106.004 189.074 106.004 185.214V59.2068C108.313 59.298 110.643 59.3851 112.992 59.4681V185.214C112.992 189.074 116.121 192.204 119.981 192.204C123.841 192.204 126.971 189.074 126.971 185.214V59.9042C129.286 59.9669 131.616 60.0253 133.962 60.0791V185.214C133.962 189.074 137.091 192.204 140.951 192.204C144.811 192.204 147.941 189.074 147.941 185.214V60.3415C150.257 60.3753 152.587 60.4044 154.927 60.4287V180.432C152.003 182.548 150.1 185.99 150.1 189.875C150.1 196.309 155.316 201.524 161.749 201.524C168.182 201.524 173.398 196.309 173.398 189.875C173.398 186.14 171.64 182.816 168.906 180.684V60.5139C171.226 60.518 173.556 60.5172 175.896 60.5111V185.214C175.896 189.074 179.025 192.204 182.885 192.204C186.745 192.204 189.874 189.074 189.874 185.214V60.4129C192.197 60.3862 194.526 60.3541 196.863 60.3166V185.214C196.863 189.074 199.992 192.204 203.852 192.204C207.712 192.204 210.841 189.074 210.841 185.214V60.0264C213.167 59.9671 215.497 59.9022 217.833 59.8313V185.214C217.833 189.074 220.962 192.204 224.822 192.204C228.682 192.204 231.811 189.074 231.811 185.214V59.338C234.137 59.2442 236.467 59.1444 238.799 59.0382V185.214C238.799 189.074 241.928 192.204 245.788 192.204C249.648 192.204 252.777 189.074 252.777 185.214V58.3279C255.106 58.197 257.435 58.0596 259.766 57.9156V185.214C259.766 189.074 262.895 192.204 266.755 192.204C270.615 192.204 273.745 189.074 273.745 185.214V57.078C273.745 57.0423 273.744 57.0067 273.744 56.9712C276.084 56.7993 278.424 56.6204 280.763 56.4344C280.744 56.6463 280.734 56.861 280.734 57.078V185.214C280.734 189.074 283.863 192.204 287.724 192.204C291.584 192.204 294.713 189.074 294.713 185.214V57.078C294.713 56.4489 294.63 55.8392 294.474 55.2592C297.047 55.0224 299.618 54.7765 302.187 54.5212C301.875 55.3131 301.704 56.1756 301.704 57.078V182.883C300.241 184.831 299.373 187.252 299.373 189.875C299.373 196.309 304.589 201.524 311.022 201.524C317.455 201.524 322.671 196.309 322.671 189.875C322.671 185.099 319.796 180.994 315.683 179.196V57.078C315.683 55.6517 315.255 54.3251 314.522 53.2193Z" fill="#FD2C15"/>
</svg>
