<svg width="611" height="155" viewBox="0 0 611 155" fill="none" xmlns="http://www.w3.org/2000/svg">
<path d="M610.581 84.4701C610.581 160.116 473.897 151.098 305.29 151.098C136.683 151.098 0 170.636 0 84.4701C0 -17.2253 136.683 17.8422 305.29 17.8422C473.897 17.8422 619.859 -9.71074 610.581 84.4701Z" fill="#1297FD"/>
<path d="M111.968 56.984V74.136C110.176 71.2347 107.787 68.9307 104.8 67.224C101.899 65.5173 98.8267 64.664 95.584 64.664C91.0613 64.664 87.0933 66.2853 83.68 69.528C80.352 72.7707 78.688 77.208 78.688 82.84C78.688 87.96 80.1813 92.2693 83.168 95.768C86.24 99.2667 90.336 101.016 95.456 101.016C102.197 101.016 107.701 97.816 111.968 91.416V108.568C107.104 111.384 101.899 112.792 96.352 112.792C86.624 112.792 78.9013 109.891 73.184 104.088C67.808 98.712 65.12 91.7147 65.12 83.096C65.12 73.88 68.192 66.3707 74.336 60.568C79.7973 55.448 86.88 52.888 95.584 52.888C101.984 52.888 107.445 54.2533 111.968 56.984ZM141.341 61.464C147.144 55.7467 154.354 52.888 162.973 52.888C171.592 52.888 178.76 55.7467 184.477 61.464C190.28 67.096 193.181 74.2213 193.181 82.84C193.181 91.4587 190.28 98.6267 184.477 104.344C178.76 109.976 171.592 112.792 162.973 112.792C154.354 112.792 147.144 109.976 141.341 104.344C135.624 98.6267 132.765 91.4587 132.765 82.84C132.765 74.2213 135.624 67.096 141.341 61.464ZM151.197 96.536C154.525 99.5227 158.45 101.016 162.973 101.016C167.496 101.016 171.378 99.5227 174.621 96.536C177.949 93.464 179.613 88.9413 179.613 82.968C179.613 76.824 177.949 72.2587 174.621 69.272C171.378 66.2 167.496 64.664 162.973 64.664C158.45 64.664 154.525 66.2 151.197 69.272C147.954 72.2587 146.333 76.824 146.333 82.968C146.333 88.9413 147.954 93.464 151.197 96.536ZM226.558 69.016L218.11 61.592C220.329 59.2027 222.761 57.3253 225.406 55.96C229.161 53.912 233.726 52.888 239.102 52.888C245.417 52.888 250.238 54.2107 253.566 56.856C257.321 59.8427 259.198 63.5973 259.198 68.12C259.198 73.6667 256.638 77.5067 251.518 79.64C254.334 80.2373 256.766 81.432 258.814 83.224C261.801 85.8693 263.294 89.24 263.294 93.336C263.294 99.6507 260.649 104.643 255.358 108.312C251.091 111.299 245.673 112.792 239.102 112.792C232.361 112.792 226.814 111.213 222.462 108.056C219.475 105.923 216.958 103.021 214.91 99.352L225.406 93.976C226.43 96.3653 227.923 98.2427 229.886 99.608C232.105 101.229 235.006 102.04 238.59 102.04C242.089 102.04 244.734 101.4 246.526 100.12C248.659 98.6693 249.726 96.536 249.726 93.72C249.726 91.16 248.873 89.3253 247.166 88.216C245.715 87.192 243.198 86.68 239.614 86.68H232.83V75.928H238.718C241.278 75.928 243.155 75.5013 244.35 74.648C245.886 73.624 246.654 72.0453 246.654 69.912C246.654 67.864 245.843 66.2427 244.222 65.048C242.686 64.1093 240.766 63.64 238.462 63.64C235.561 63.64 233.043 64.2373 230.91 65.432C229.289 66.2853 227.838 67.48 226.558 69.016ZM293.247 54.424H335.743V99.224H344.191V127.128H332.159V111H292.479V127.128H280.447V99.224C285.14 98.7973 288.639 96.3227 290.943 91.8C292.479 88.6427 293.247 83.6507 293.247 76.824V54.424ZM322.687 99.224V66.2H305.791V81.816C305.791 90.008 303.572 95.8107 299.135 99.224H322.687ZM406.369 54.424H419.425V111H406.369V105.112C402.017 110.232 396.3 112.792 389.217 112.792C380.94 112.792 374.284 109.805 369.249 103.832C364.3 97.8587 361.825 90.8187 361.825 82.712C361.825 74.6053 364.3 67.608 369.249 61.72C374.198 55.832 380.897 52.888 389.345 52.888C396.684 52.888 402.358 55.6187 406.369 61.08V54.424ZM391.265 64.664C386.572 64.664 382.732 66.4133 379.745 69.912C376.844 73.4107 375.393 77.7627 375.393 82.968C375.393 88.0027 376.801 92.2693 379.617 95.768C382.518 99.2667 386.401 101.016 391.265 101.016C396.129 101.016 399.969 99.3093 402.785 95.896C405.686 92.4827 407.137 88.1307 407.137 82.84C407.137 77.0373 405.601 72.5573 402.529 69.4C399.457 66.2427 395.702 64.664 391.265 64.664ZM456.514 111V66.2H439.874V54.424H486.21V66.2H469.57V111H456.514ZM506.681 54.424H519.737V74.52H527.417C529.806 74.52 531.726 74.6053 533.177 74.776C534.628 74.8613 536.505 75.3733 538.809 76.312C541.198 77.1653 543.161 78.488 544.697 80.28C547.513 83.4373 548.921 87.5333 548.921 92.568C548.921 98.5413 547.214 103.107 543.801 106.264C542.265 107.715 540.473 108.824 538.425 109.592C536.377 110.36 534.628 110.787 533.177 110.872C531.812 110.957 529.849 111 527.289 111H506.681V54.424ZM519.737 99.736H525.625C528.782 99.736 531.044 99.3093 532.409 98.456C534.372 97.2613 535.353 95.3413 535.353 92.696C535.353 90.2213 534.414 88.344 532.537 87.064C531.172 86.2107 528.91 85.784 525.753 85.784H519.737V99.736Z" fill="black"/>
</svg>
