<svg width="217" height="217" viewBox="0 0 217 217" fill="none" xmlns="http://www.w3.org/2000/svg">
<circle cx="108.401" cy="108.401" r="101.174" stroke="#F7CA0A" stroke-width="14.4535"/>
<path d="M172.029 108.402C172.029 154.292 135.091 191.409 89.6279 191.409C44.1648 191.409 7.22675 154.292 7.22675 108.402C7.22675 62.5131 44.1648 25.3957 89.6279 25.3957C135.091 25.3957 172.029 62.5131 172.029 108.402Z" stroke="#FD2C15" stroke-width="14.4535"/>
<path d="M136.299 108.401C136.299 144.239 107.376 173.239 71.7628 173.239C36.1492 173.239 7.22675 144.239 7.22675 108.401C7.22675 72.5624 36.1492 43.5617 71.7628 43.5617C107.376 43.5617 136.299 72.5624 136.299 108.401Z" stroke="#1297FD" stroke-width="14.4535"/>
<circle cx="53.2922" cy="108.402" r="46.0655" stroke="#FD2C15" stroke-width="14.4535"/>
</svg>
