<svg width="373" height="205" viewBox="0 0 373 205" fill="none" xmlns="http://www.w3.org/2000/svg">
<path fill-rule="evenodd" clip-rule="evenodd" d="M190.194 204.863C165.648 204.895 145.717 180.429 145.679 150.217L145.678 150.217L145.679 150.213C145.675 147.264 145.861 144.369 146.223 141.546C145.244 143.234 144.18 144.9 143.03 146.536C125.656 171.252 95.2926 179.845 75.2107 165.729C55.129 151.614 52.933 120.135 70.3057 95.4184L70.3035 95.4169L70.3157 95.4042C72.3339 92.5345 74.5271 89.8824 76.859 87.458C74.2198 88.8169 71.442 90.0226 68.5389 91.0533L68.5325 91.057L68.5321 91.0557C40.0606 101.16 10.3244 90.5987 2.11438 67.4656C-6.09564 44.3325 10.3295 17.388 38.801 7.28331C47.8116 4.08542 56.9488 2.95741 65.4903 3.6427C98.6766 0.444382 139.078 0.295825 168.265 0.188525L168.272 0.188516C172.402 0.173322 176.308 0.15895 179.936 0.136875L179.813 0.0203484C181.658 0.0512256 183.646 0.0740001 185.764 0.0910398C188.069 0.0677408 190.225 0.0383608 192.213 -7.86619e-06L192.081 0.125834C195.714 0.138665 199.625 0.143069 203.762 0.147704C232.951 0.180461 273.356 0.225808 306.552 3.34004C315.091 2.63346 324.23 3.73823 333.248 6.9127C361.745 16.9446 378.239 43.8471 370.088 67.0011C361.937 90.1551 332.228 100.793 303.731 90.7607L303.726 90.7593L303.726 90.7611L303.717 90.7558C302.969 90.4925 302.23 90.2176 301.499 89.9315C302.911 91.5668 304.263 93.2919 305.544 95.1042L305.556 95.1168L305.554 95.1183C322.99 119.79 320.874 151.274 300.829 165.441C281.379 179.187 252.197 171.58 234.551 148.581C234.563 149.087 234.57 149.594 234.57 150.104C234.609 180.315 214.741 204.832 190.194 204.863Z" fill="#F7CA0A"/>
</svg>
