<svg width="484" height="744" viewBox="0 0 484 744" fill="none" xmlns="http://www.w3.org/2000/svg">
<path d="M335.332 743.031H149.036C160.095 733.723 193.441 715.105 238.356 715.105C283.271 715.105 321.722 733.723 335.332 743.031Z" fill="#F7CA0A"/>
<path d="M235.196 165.898V375.341C235.196 400.939 223.553 417.695 176.979 279.928C130.405 142.161 196.385 146.505 235.196 165.898Z" fill="#FD2C15"/>
<path d="M232.869 532.513V705.387C232.869 726.516 219.721 740.345 167.126 626.633C114.531 512.921 189.04 516.507 232.869 532.513Z" fill="#1297FD"/>
<path d="M242.184 532.513V705.387C242.184 726.516 255.333 740.345 307.928 626.633C360.523 512.921 286.013 516.507 242.184 532.513Z" fill="#D9D9D9"/>
<path d="M237.527 165.898V375.341C237.527 400.939 249.171 417.695 295.745 279.928C342.319 142.161 276.339 146.505 237.527 165.898Z" fill="#F7CA0A"/>
<ellipse cx="51.4071" cy="66.4681" rx="51.4071" ry="66.4681" transform="matrix(0.905968 -0.423347 0.423813 0.90575 116.433 339.748)" fill="#FD2C15"/>
<ellipse cx="51.4071" cy="66.4681" rx="51.4071" ry="66.4681" transform="matrix(-0.905968 -0.423347 -0.423813 0.90575 359.068 339.748)" fill="#F7CA0A"/>
<ellipse cx="41.9146" cy="93.0903" rx="41.9146" ry="93.0903" transform="matrix(0.962257 -0.272143 0.272482 0.962161 121.091 379.541)" fill="#D9D9D9"/>
<ellipse cx="41.9146" cy="93.0903" rx="41.9146" ry="93.0903" transform="matrix(-0.962257 -0.272143 -0.272482 0.962161 354.949 379.541)" fill="#1297FD"/>
<ellipse cx="44.2385" cy="92.3619" rx="44.2385" ry="92.3619" transform="matrix(0.876312 0.481743 -0.48224 0.876039 135.359 119.355)" fill="#F7CA0A"/>
<ellipse cx="44.2385" cy="92.3619" rx="44.2385" ry="92.3619" transform="matrix(-0.876312 0.481743 0.48224 0.876039 347.662 119.355)" fill="#FD2C15"/>
<ellipse cx="21.227" cy="92.3567" rx="21.227" ry="92.3567" transform="matrix(-0.922806 -0.385265 -0.385705 0.922622 483.015 140.367)" fill="#1297FD"/>
<ellipse cx="21.227" cy="92.3567" rx="21.227" ry="92.3567" transform="matrix(-0.922806 0.385265 -0.385705 -0.922622 110.422 294.431)" fill="#1297FD"/>
<ellipse cx="237.526" cy="42.5614" rx="9.31481" ry="30.2528" fill="#1297FD"/>
<ellipse cx="237.525" cy="107.723" rx="41.9166" ry="62.8328" fill="#D9D9D9"/>
<path d="M233.606 102.437C208.506 74.045 170.855 92.5785 155.168 105.394C146.801 69.9047 176.085 55.1163 191.772 52.1583C195.956 9.56953 169.112 24.5547 155.168 37.3709C178.176 -33.6104 220.533 21.5975 238.836 58.0741C278.578 -27.1012 304.201 8.78225 312.045 37.3709C304.201 19.626 267.596 40.3284 288.513 52.1583C305.247 61.6222 307.687 91.5922 306.816 105.394C279.624 81.7355 246.679 93.5648 233.606 102.437Z" fill="#FD2C15" stroke="#F7CA0A" stroke-width="5.00335"/>
</svg>
