<svg width="446" height="771" viewBox="0 0 446 771" fill="none" xmlns="http://www.w3.org/2000/svg">
<ellipse cx="222.712" cy="302.317" rx="91.1075" ry="88.9887" fill="#D9D9D9"/>
<circle cx="72.2778" cy="302.319" r="72.0385" fill="#1297FD"/>
<circle cx="373.145" cy="302.319" r="72.0385" fill="#FD2C15"/>
<rect x="195.167" y="323.504" width="59.3258" height="101.701" fill="#D9D9D9"/>
<path d="M250.12 748.412L320.328 416.827L234.943 416.832L250.12 748.412Z" fill="#1297FD"/>
<path d="M194.155 730.294C194.031 733.005 190.146 733.322 189.584 730.667L123.72 419.561C123.415 418.123 124.512 416.77 125.982 416.77L206.094 416.773C207.412 416.773 208.464 417.873 208.403 419.19L194.155 730.294Z" fill="#1297FD"/>
<path d="M219.847 503.277C221.497 504.684 223.925 504.684 225.575 503.277L332.866 411.789C335.988 409.127 334.106 404.017 330.002 404.017H115.419C111.316 404.017 109.434 409.127 112.556 411.789L219.847 503.277Z" fill="#FD2C15"/>
<ellipse cx="27.7679" cy="239.221" rx="19.069" ry="13.3928" transform="rotate(-33.2466 27.7679 239.221)" fill="#D9D9D9"/>
<ellipse cx="19.069" cy="13.3928" rx="19.069" ry="13.3928" transform="matrix(-0.836318 -0.548244 -0.548244 0.836318 440.912 238.475)" fill="#D9D9D9"/>
<rect x="146.87" y="550.543" width="67.4738" height="189.22" rx="6.11094" fill="#FD2C15"/>
<ellipse cx="153.471" cy="722.895" rx="65.2736" ry="47.6717" fill="#FD2C15"/>
<rect width="68.9407" height="189.22" rx="6.11094" transform="matrix(-1 0 0 1 307.489 550.543)" fill="#FD2C15"/>
<ellipse cx="64.5402" cy="47.6717" rx="64.5402" ry="47.6717" transform="matrix(-1 0 0 1 361.025 675.224)" fill="#FD2C15"/>
<path d="M94.7109 114.812L185.565 117.489L189.101 171.069L140.066 181.706L154.607 146.979L123.586 152.681L145.135 130.298L94.7109 114.812Z" fill="#1297FD"/>
<path d="M262.908 123.866L256.847 184.219L338.999 194.484L297.838 160.944L320.793 147.91L291.165 140.027L328.631 105.96L262.908 123.866Z" fill="#1297FD"/>
<ellipse cx="223.896" cy="145.905" rx="42.189" ry="68.3146" transform="rotate(-1.08702 223.896 145.905)" fill="#F7CA0A"/>
<path d="M176.463 111.644C207.907 97.9873 251.774 124.695 269.777 139.756L253.715 36.0843L176.463 111.644Z" fill="#FD2C15"/>
<ellipse cx="259.493" cy="25.7689" rx="21.2546" ry="16.589" transform="rotate(-69.1408 259.493 25.7689)" fill="#1297FD"/>
</svg>
