<svg width="523" height="773" viewBox="0 0 523 773" fill="none" xmlns="http://www.w3.org/2000/svg">
<path d="M204.011 118.191L228.614 121.03L286.371 125.309C288.2 125.444 290.038 125.311 291.828 124.913L336.487 114.989C344.789 113.144 344.944 101.365 336.693 99.3018C329.491 97.5012 328.347 87.7451 334.938 84.3276L341.614 80.8662C351.43 75.7762 348.311 60.9921 337.274 60.3023L321.032 59.2872C312.218 58.7363 305.68 50.8026 306.692 42.0297C308.363 27.5528 291.222 18.4724 280.439 28.2752L273.937 34.1863C267.728 39.8306 257.975 38.7422 253.163 31.8681C245.665 21.1576 228.874 25.75 227.872 38.7854L227.558 42.8651C226.956 50.692 219.159 55.8692 211.711 53.3868C199.79 49.4131 190.725 64.2782 199.379 73.3884C204.243 78.5085 203.807 86.7456 198.355 91.2351L196.504 92.7593C186.695 100.837 191.388 116.735 204.011 118.191Z" fill="#FD2C15"/>
<ellipse cx="259.99" cy="114.306" rx="35.8608" ry="47.0673" fill="#1297FD"/>
<rect x="242.061" y="129.995" width="40.3434" height="67.239" fill="#1297FD"/>
<path d="M121.03 251.027C156.891 211.58 218.153 183.787 244.302 174.822H262.232V206.2C253.267 202.614 242.06 204.706 237.578 206.2C134.478 257.75 78.4455 360.85 49.3086 385.505C25.9991 405.228 6.7239 371.31 0 351.885C12.7007 356.368 38.5504 364.436 40.3434 360.85C42.5847 356.368 76.2042 300.335 121.03 251.027Z" fill="#1297FD"/>
<path d="M401.273 251.027C365.412 211.58 304.149 183.787 278.001 174.822H260.071V206.2C269.036 202.614 280.242 204.706 284.725 206.2C387.825 257.75 443.857 360.85 472.994 385.505C496.304 405.228 515.579 371.31 522.303 351.885C509.602 356.368 483.752 364.436 481.959 360.85C479.718 356.368 446.099 300.335 401.273 251.027Z" fill="#1297FD"/>
<path d="M272.107 723.489C272.153 728.016 278.618 728.763 279.695 724.366L328.244 526.107C328.835 523.693 327.017 521.36 324.532 521.342L273.948 520.986C271.796 520.97 270.05 522.723 270.072 524.874L272.107 723.489Z" fill="#1297FD"/>
<path d="M254.612 723.489C254.566 728.016 248.101 728.763 247.024 724.366L198.475 526.107C197.884 523.693 199.701 521.36 202.187 521.342L252.771 520.986C254.923 520.97 256.669 522.723 256.647 524.874L254.612 723.489Z" fill="#1297FD"/>
<ellipse cx="260.399" cy="378.829" rx="169.185" ry="181.69" fill="#F7CA0A"/>
<path d="M256.179 768.481V718.439C256.179 715.266 252.343 713.677 250.1 715.921L225.792 740.229C225.326 740.695 224.74 741.022 224.099 741.175L173.39 753.248C171.786 753.63 170.654 755.064 170.654 756.713V768.481C170.654 770.447 172.249 772.041 174.215 772.041H252.618C254.585 772.041 256.179 770.447 256.179 768.481Z" fill="#FD2C15"/>
<path d="M269.218 768.481V718.439C269.218 715.266 273.053 713.677 275.297 715.921L299.605 740.229C300.071 740.695 300.657 741.022 301.298 741.175L352.006 753.248C353.61 753.63 354.742 755.064 354.742 756.713V768.481C354.742 770.447 353.148 772.041 351.181 772.041H272.779C270.812 772.041 269.218 770.447 269.218 768.481Z" fill="#FD2C15"/>
<path d="M259.742 457.168V368.162L340.289 271.433" stroke="#1297FD" stroke-width="19.2472"/>
<path d="M259.295 367.795L164.036 296.075" stroke="#1297FD" stroke-width="4.61932"/>
</svg>
