<svg width="347" height="187" viewBox="0 0 347 187" fill="none" xmlns="http://www.w3.org/2000/svg">
<path fill-rule="evenodd" clip-rule="evenodd" d="M211.943 46.0548C215.83 42.7238 218.714 38.2612 220.089 33.1845C221.575 38.229 224.556 42.6267 228.514 45.8714C225.903 45.0213 223.112 44.5755 220.215 44.6074C217.317 44.6392 214.535 45.1467 211.943 46.0548ZM203.68 50.8215C201.088 51.7296 198.306 52.2371 195.408 52.269C192.741 52.2983 190.163 51.9228 187.734 51.1996C191.405 54.2822 194.208 58.3674 195.72 63.0393C197.16 58.2328 199.961 54.0091 203.68 50.8215ZM195.89 78.4401C194.34 83.6157 191.211 88.1157 187.057 91.3737C189.895 90.2613 192.979 89.6355 196.208 89.6C199.163 89.5675 202.008 90.0319 204.663 90.9155C200.606 87.7692 197.508 83.4407 195.89 78.4401ZM171.395 96.872C174.624 96.8365 177.708 96.2107 180.546 95.0982C176.392 98.3562 173.263 102.856 171.713 108.031C170.096 103.033 167.001 98.7052 162.947 95.5587C165.6 96.4408 168.442 96.9044 171.395 96.872ZM147.387 141.861C150.223 141.83 152.947 141.343 155.491 140.472C152.387 143.404 150.011 147.096 148.656 151.245C147.346 147.511 145.203 144.171 142.454 141.446C144.052 141.736 145.702 141.879 147.387 141.861ZM172.963 133.415C170.127 133.446 167.403 133.932 164.859 134.804C168.112 131.73 170.566 127.823 171.882 123.429C173.182 127.45 175.439 131.036 178.382 133.922C176.632 133.57 174.819 133.394 172.963 133.415ZM196.777 141.321C194.921 141.341 193.108 141.166 191.358 140.813C194.3 143.699 196.556 147.283 197.857 151.302C199.172 146.911 201.624 143.007 204.874 139.934C202.332 140.804 199.61 141.29 196.777 141.321ZM214.255 134.259C216.796 133.389 219.518 132.903 222.351 132.872C224.386 132.85 226.369 133.063 228.273 133.486C225.117 130.429 222.735 126.572 221.458 122.238C220.196 126.895 217.665 131.035 214.255 134.259ZM240.63 140.157C242.534 140.58 244.517 140.793 246.551 140.771C249.387 140.74 252.112 140.253 254.656 139.382C251.242 142.607 248.709 146.75 247.447 151.411C246.17 147.074 243.788 143.216 240.63 140.157ZM272.129 132.324C269.293 132.355 266.568 132.841 264.024 133.713C266.988 130.913 269.289 127.42 270.669 123.498C271.978 126.969 274.01 130.083 276.582 132.656C275.134 132.421 273.646 132.307 272.129 132.324ZM296.621 149.063C295.312 145.592 293.28 142.478 290.709 139.905C292.157 140.14 293.645 140.254 295.162 140.238C297.997 140.206 300.721 139.72 303.264 138.849C300.301 141.649 298.001 145.141 296.621 149.063ZM321.308 183.51C310.135 183.633 300.54 176.653 296.815 166.771C293.309 176.733 283.87 183.922 272.697 184.045C260.858 184.175 250.79 176.329 247.602 165.506C244.653 176.397 234.76 184.463 222.92 184.593C211.32 184.721 201.42 177.191 198.026 166.706C194.864 177.263 185.132 185.008 173.532 185.136C162.153 185.261 152.409 178.017 148.839 167.844C145.493 178.094 135.911 185.549 124.532 185.675C113.555 185.795 104.1 179.059 100.24 169.45C96.5928 179.141 87.2884 186.084 76.3113 186.204C64.2093 186.337 53.9574 178.136 51.0139 166.94C48.3166 178.197 38.2479 186.621 26.1465 186.754C11.8641 186.911 0.158638 175.46 0.00159618 161.178C-0.155446 146.896 11.2954 135.19 25.5778 135.033C27.7959 135.009 29.9519 135.264 32.0121 135.767C27.1562 131.125 24.1021 124.605 24.0224 117.357C23.8654 103.075 35.3162 91.3692 49.5986 91.2121C52.5534 91.1796 55.398 91.644 58.0528 92.5275C52.0302 87.856 48.1205 80.5789 48.0302 72.3653C47.8732 58.083 59.324 46.3775 73.6064 46.2205C75.6608 46.1979 77.662 46.4155 79.5831 46.8471C74.3122 42.1731 70.9593 35.3754 70.8757 27.7762C70.7187 13.4938 82.1695 1.78837 96.4519 1.63133C107.83 1.50622 117.573 8.74824 121.144 18.9199C124.49 8.67208 134.072 1.21751 145.45 1.0924C157.05 0.964855 166.951 8.49499 170.344 18.9803C173.506 8.42219 183.238 0.675472 194.839 0.547908C206.678 0.417736 216.746 8.26324 219.934 19.086C222.884 8.19625 232.777 0.13174 244.615 0.00156753C258.898 -0.155476 270.603 11.2954 270.76 25.5777C270.848 33.5394 267.328 40.7003 261.722 45.5063C264.313 44.599 267.093 44.092 269.99 44.0601C284.273 43.9031 295.978 55.3539 296.135 69.6363C296.224 77.7244 292.591 84.9862 286.828 89.7922C289.274 88.992 291.883 88.5464 294.593 88.5166C308.875 88.3595 320.581 99.8104 320.738 114.093C320.82 121.601 317.695 128.398 312.636 133.178C315.179 132.307 317.903 131.821 320.739 131.789C335.021 131.632 346.727 143.083 346.884 157.366C347.041 171.648 335.59 183.353 321.308 183.51ZM128.896 134.368C126.147 131.644 124.005 128.305 122.694 124.571C121.34 128.719 118.965 132.41 115.862 135.342C118.405 134.471 121.128 133.985 123.963 133.953C125.648 133.935 127.298 134.078 128.896 134.368ZM106.489 141.012C103.946 141.883 101.223 142.37 98.3879 142.401C97.0316 142.416 95.6985 142.326 94.3964 142.139C96.8053 144.569 98.7363 147.476 100.034 150.708C101.431 146.997 103.657 143.689 106.489 141.012ZM50.8752 154.298C49.6425 149.609 47.1281 145.445 43.7329 142.199C45.7931 142.702 47.9491 142.958 50.1673 142.933C53.0005 142.902 55.7223 142.416 58.2642 141.546C54.6769 144.938 52.0622 149.343 50.8752 154.298ZM79.7341 134.745C77.3255 132.315 75.3947 129.409 74.0967 126.178C72.7008 129.887 70.4759 133.194 67.6457 135.87C70.1876 135 72.9094 134.514 75.7426 134.483C77.0989 134.468 78.4319 134.558 79.7341 134.745ZM270.475 105.79C272.037 101.351 274.777 97.4633 278.324 94.5055C275.878 95.3057 273.269 95.7513 270.559 95.7811C267.606 95.8136 264.763 95.3498 262.109 94.4672C265.849 97.3696 268.774 101.277 270.475 105.79ZM254.433 90.3639C250.204 87.0829 247.018 82.5173 245.465 77.2452C243.94 82.8723 240.562 87.7449 236.019 91.1581C239.077 89.8371 242.443 89.0889 245.983 89.0499C248.936 89.0175 251.779 89.4813 254.433 90.3639ZM230.748 94.2202C227.689 95.5412 224.324 96.2895 220.784 96.3284C217.829 96.3609 214.984 95.8965 212.329 95.0129C216.559 98.2936 219.747 102.86 221.302 108.133C222.826 102.506 226.205 97.6334 230.748 94.2202ZM122.512 107.969C124.072 103.19 126.989 99.0174 130.811 95.913C128.179 96.8528 125.348 97.3785 122.397 97.4109C119.443 97.4434 116.599 96.9793 113.945 96.0964C117.837 99.1161 120.846 103.224 122.512 107.969ZM138.403 91.6377C141.036 90.698 143.866 90.1723 146.818 90.1398C149.771 90.1074 152.613 90.571 155.266 91.4531C151.376 88.4339 148.368 84.3272 146.703 79.5834C145.142 84.3623 142.226 88.5337 138.403 91.6377ZM98.1046 81.1857C99.8298 85.4811 102.673 89.2027 106.271 91.9942C103.617 91.1113 100.773 90.6472 97.8192 90.6797C95.3347 90.707 92.9358 91.0838 90.6688 91.7628C93.9692 88.9463 96.5506 85.3156 98.1046 81.1857ZM74.1751 97.9415C76.6596 97.9142 79.0585 97.5374 81.3254 96.8583C78.0251 99.6748 75.4438 103.305 73.8898 107.435C72.1639 103.139 69.3196 99.4175 65.7208 96.6261C68.3757 97.5096 71.2202 97.974 74.1751 97.9415ZM245.184 51.7226C248.081 51.6908 250.862 51.1837 253.453 50.2764C249.568 53.6069 246.685 58.0683 245.31 63.1433C243.824 58.0998 240.843 53.7028 236.886 50.4585C239.496 51.3087 242.287 51.7545 245.184 51.7226ZM154.289 51.3667C150.727 54.4197 148.008 58.4231 146.52 62.9785C144.998 58.6441 142.356 54.8416 138.944 51.9145C141.196 52.526 143.569 52.8404 146.019 52.8135C148.916 52.7816 151.697 52.2744 154.289 51.3667ZM170.826 45.1509C167.928 45.1828 165.147 45.69 162.556 46.5977C166.274 43.4103 169.075 39.1869 170.514 34.3811C172.026 39.0527 174.829 43.1378 178.499 46.2203C176.07 45.4971 173.493 45.1216 170.826 45.1509ZM128.903 46.5888C125.491 43.6617 122.848 39.8593 121.327 35.5249C119.839 40.0802 117.119 44.0836 113.558 47.1367C116.149 46.229 118.93 45.7217 121.828 45.6899C124.277 45.6629 126.65 45.9773 128.903 46.5888ZM105.291 51.9056C102.699 52.8133 99.9183 53.3205 97.0206 53.3524C94.9662 53.375 92.965 53.1574 91.0439 52.7257C94.0225 55.3671 96.3887 58.6866 97.8984 62.4457C99.4456 58.3339 102.011 54.7169 105.291 51.9056Z" fill="#1297FD"/>
</svg>
