<svg width="483" height="151" viewBox="0 0 483 151" fill="none" xmlns="http://www.w3.org/2000/svg">
<path d="M482.668 77.6099C482.668 158.62 374.619 148.963 241.334 148.963C108.049 148.963 0 169.886 0 77.6099C0 -31.298 108.049 6.2565 241.334 6.2565C374.619 6.2565 490.003 -23.2505 482.668 77.6099Z" fill="#1297FD"/>
<path d="M107.694 30.0087H113.75C115.349 30.0087 116.492 30.0277 117.177 30.0658C117.901 30.1039 118.91 30.2943 120.205 30.6371C121.5 30.9418 122.643 31.437 123.633 32.1225C126.642 34.2173 128.146 37.2262 128.146 41.1491C128.146 44.1961 126.966 46.6337 124.604 48.4618C126.928 49.1855 128.661 50.4614 129.803 52.2896C130.984 54.0797 131.574 56.0221 131.574 58.1169C131.574 61.9637 130.241 64.9916 127.575 67.2006C126.509 68.0766 125.233 68.7431 123.747 69.2002C122.262 69.6191 121.1 69.8667 120.262 69.9429C119.463 69.981 118.339 70 116.892 70H107.694V30.0087ZM113.864 35.7217V47.205H115.692C120.034 47.205 122.205 45.2435 122.205 41.3205C122.205 37.588 120.11 35.7217 115.921 35.7217H113.864ZM113.864 52.2324V64.287H117.52C120.453 64.287 122.491 63.6966 123.633 62.5159C124.814 61.2971 125.404 59.8689 125.404 58.2311C125.404 56.5553 124.814 55.1461 123.633 54.0035C122.491 52.8228 120.491 52.2324 117.634 52.2324H113.864ZM142.995 44.7483H148.822V53.7178H152.25C153.316 53.7178 154.173 53.7559 154.821 53.8321C155.468 53.8702 156.306 54.0987 157.334 54.5177C158.401 54.8985 159.277 55.4889 159.962 56.2887C161.219 57.6979 161.848 59.5261 161.848 61.7732C161.848 64.4393 161.086 66.477 159.562 67.8862C158.877 68.5337 158.077 69.0288 157.163 69.3716C156.249 69.7143 155.468 69.9048 154.821 69.9429C154.211 69.981 153.335 70 152.193 70H142.995V44.7483ZM148.822 64.9725H151.45C152.859 64.9725 153.868 64.7821 154.478 64.4012C155.354 63.868 155.792 63.011 155.792 61.8303C155.792 60.7258 155.373 59.8879 154.535 59.3166C153.926 58.9357 152.916 58.7453 151.507 58.7453H148.822V64.9725ZM164.476 44.7483H170.303V70H164.476V44.7483ZM201.643 28.0091H207.641C207.222 30.0658 206.308 31.8369 204.899 33.3223C203.49 34.8077 201.757 35.817 199.7 36.3502L195.644 37.4357C194.577 37.7403 193.778 37.9879 193.244 38.1783C192.749 38.3307 192.083 38.6735 191.245 39.2067C190.445 39.7399 189.759 40.4064 189.188 41.2063C187.893 42.9583 187.208 45.1102 187.131 47.662H187.189C188.026 46.4813 189.245 45.5863 190.845 44.9769C192.445 44.3675 194.082 44.0628 195.758 44.0628C199.376 44.0628 202.328 45.2816 204.613 47.7191C207.013 50.2329 208.213 53.4131 208.213 57.2599C208.213 61.1829 206.918 64.4203 204.328 66.9721C201.776 69.5239 198.577 70.7998 194.73 70.7998C190.921 70.7998 187.836 69.6763 185.475 67.4291C182.656 64.763 181.247 60.4402 181.247 54.4605C181.247 47.0717 182.504 41.511 185.018 37.7784C186.922 34.96 189.455 33.1699 192.616 32.4082L196.844 31.3798C198.291 31.037 199.376 30.6181 200.1 30.123C200.862 29.5897 201.376 28.8851 201.643 28.0091ZM189.474 63.5443C190.959 64.8773 192.711 65.5438 194.73 65.5438C196.748 65.5438 198.481 64.8773 199.929 63.5443C201.414 62.1731 202.157 60.1545 202.157 57.4884C202.157 54.7462 201.414 52.7085 199.929 51.3755C198.481 50.0043 196.748 49.3188 194.73 49.3188C192.711 49.3188 190.959 50.0043 189.474 51.3755C188.026 52.7085 187.303 54.7462 187.303 57.4884C187.303 60.1545 188.026 62.1731 189.474 63.5443ZM237.335 60.6877L242.248 63.43C241.296 65.182 240.192 66.6103 238.935 67.7148C236.612 69.7715 233.679 70.7998 230.137 70.7998C226.899 70.7998 224.043 69.6572 221.567 67.372C219.13 65.0868 217.911 61.8113 217.911 57.5456C217.911 53.4703 219.015 50.2138 221.224 47.7763C223.433 45.3006 226.385 44.0628 230.08 44.0628C234.383 44.0628 237.583 45.6053 239.678 48.6903C241.239 51.0137 242.02 54.0797 242.02 57.8883V58.8024H223.967C224.005 60.9353 224.709 62.5921 226.081 63.7728C227.49 64.9535 229.051 65.5438 230.765 65.5438C232.251 65.5438 233.584 65.0868 234.764 64.1727C235.831 63.3729 236.688 62.2112 237.335 60.6877ZM224.309 54.0035H236.021C235.678 52.5562 234.974 51.4136 233.907 50.5757C232.879 49.7377 231.641 49.3188 230.194 49.3188C228.785 49.3188 227.547 49.7568 226.48 50.6328C225.414 51.4707 224.69 52.5943 224.309 54.0035ZM259.037 44.7483V47.4906C260.941 45.2054 263.493 44.0628 266.692 44.0628C270.082 44.0628 272.958 45.2816 275.319 47.7191C277.718 50.1567 278.918 53.356 278.918 57.317C278.918 61.2781 277.68 64.5155 275.205 67.0292C272.729 69.543 269.911 70.7998 266.749 70.7998C266.102 70.7998 265.416 70.7237 264.693 70.5713C263.969 70.419 263.036 70.0571 261.893 69.4858C260.789 68.8764 259.837 68.0766 259.037 67.0863V81.9974H253.209V44.7483H259.037ZM265.835 49.3188C263.893 49.3188 262.217 50.0424 260.808 51.4897C259.399 52.937 258.694 54.9366 258.694 57.4884C258.694 59.7737 259.322 61.697 260.579 63.2586C261.836 64.7821 263.588 65.5438 265.835 65.5438C267.968 65.5438 269.663 64.763 270.92 63.2015C272.215 61.6399 272.862 59.6975 272.862 57.3742C272.862 54.8604 272.158 52.899 270.749 51.4897C269.377 50.0424 267.74 49.3188 265.835 49.3188ZM289.873 44.7483H295.701V59.0881L313.068 42.4631V70H307.241V55.3175L289.873 71.9424V44.7483ZM329.652 70V50.0043H322.225V44.7483H342.906V50.0043H335.479V70H329.652ZM370.21 60.6877L375.124 63.43C374.171 65.182 373.067 66.6103 371.81 67.7148C369.487 69.7715 366.554 70.7998 363.012 70.7998C359.775 70.7998 356.918 69.6572 354.442 67.372C352.005 65.0868 350.786 61.8113 350.786 57.5456C350.786 53.4703 351.891 50.2138 354.1 47.7763C356.309 45.3006 359.26 44.0628 362.955 44.0628C367.259 44.0628 370.458 45.6053 372.553 48.6903C374.114 51.0137 374.895 54.0797 374.895 57.8883V58.8024H356.842C356.88 60.9353 357.585 62.5921 358.956 63.7728C360.365 64.9535 361.926 65.5438 363.64 65.5438C365.126 65.5438 366.459 65.0868 367.639 64.1727C368.706 63.3729 369.563 62.2112 370.21 60.6877ZM357.185 54.0035H368.896C368.554 52.5562 367.849 51.4136 366.783 50.5757C365.754 49.7377 364.516 49.3188 363.069 49.3188C361.66 49.3188 360.422 49.7568 359.356 50.6328C358.289 51.4707 357.565 52.5943 357.185 54.0035Z" fill="white"/>
<path d="M94.6424 93.7483H116.58V119H110.753V99.0043H100.47V119H94.6424V93.7483ZM146.963 109.688L151.876 112.43C150.924 114.182 149.82 115.61 148.563 116.715C146.239 118.771 143.307 119.8 139.765 119.8C136.527 119.8 133.671 118.657 131.195 116.372C128.758 114.087 127.539 110.811 127.539 106.546C127.539 102.47 128.643 99.2138 130.852 96.7763C133.061 94.3006 136.013 93.0628 139.708 93.0628C144.011 93.0628 147.211 94.6053 149.305 97.6903C150.867 100.014 151.648 103.08 151.648 106.888V107.802H133.595C133.633 109.935 134.337 111.592 135.708 112.773C137.118 113.953 138.679 114.544 140.393 114.544C141.879 114.544 143.212 114.087 144.392 113.173C145.459 112.373 146.316 111.211 146.963 109.688ZM133.937 103.003H145.649C145.306 101.556 144.602 100.414 143.535 99.5757C142.507 98.7377 141.269 98.3188 139.822 98.3188C138.413 98.3188 137.175 98.7568 136.108 99.6328C135.042 100.471 134.318 101.594 133.937 103.003ZM168.665 93.7483V96.4906C170.569 94.2054 173.121 93.0628 176.32 93.0628C179.71 93.0628 182.585 94.2816 184.947 96.7191C187.346 99.1567 188.546 102.356 188.546 106.317C188.546 110.278 187.308 113.515 184.833 116.029C182.357 118.543 179.539 119.8 176.377 119.8C175.73 119.8 175.044 119.724 174.321 119.571C173.597 119.419 172.664 119.057 171.521 118.486C170.417 117.876 169.465 117.077 168.665 116.086V130.997H162.837V93.7483H168.665ZM175.463 98.3188C173.521 98.3188 171.845 99.0424 170.436 100.49C169.027 101.937 168.322 103.937 168.322 106.488C168.322 108.774 168.95 110.697 170.207 112.259C171.464 113.782 173.216 114.544 175.463 114.544C177.596 114.544 179.291 113.763 180.548 112.201C181.843 110.64 182.49 108.697 182.49 106.374C182.49 103.86 181.786 101.899 180.376 100.49C179.005 99.0424 177.368 98.3188 175.463 98.3188ZM219.154 94.891V102.546C218.354 101.251 217.288 100.223 215.955 99.4614C214.66 98.6997 213.289 98.3188 211.841 98.3188C209.823 98.3188 208.052 99.0424 206.528 100.49C205.043 101.937 204.3 103.918 204.3 106.431C204.3 108.717 204.967 110.64 206.3 112.201C207.671 113.763 209.499 114.544 211.784 114.544C214.793 114.544 217.25 113.116 219.154 110.259V117.915C216.983 119.171 214.66 119.8 212.184 119.8C207.842 119.8 204.395 118.505 201.844 115.915C199.444 113.515 198.244 110.392 198.244 106.546C198.244 102.432 199.616 99.0805 202.358 96.4906C204.795 94.2054 207.957 93.0628 211.841 93.0628C214.698 93.0628 217.136 93.6722 219.154 94.891ZM232.264 96.8905C234.854 94.3387 238.072 93.0628 241.919 93.0628C245.766 93.0628 248.965 94.3387 251.517 96.8905C254.107 99.4043 255.402 102.585 255.402 106.431C255.402 110.278 254.107 113.477 251.517 116.029C248.965 118.543 245.766 119.8 241.919 119.8C238.072 119.8 234.854 118.543 232.264 116.029C229.712 113.477 228.436 110.278 228.436 106.431C228.436 102.585 229.712 99.4043 232.264 96.8905ZM236.663 112.544C238.149 113.877 239.901 114.544 241.919 114.544C243.938 114.544 245.671 113.877 247.118 112.544C248.604 111.173 249.346 109.155 249.346 106.488C249.346 103.746 248.604 101.709 247.118 100.375C245.671 99.0043 243.938 98.3188 241.919 98.3188C239.901 98.3188 238.149 99.0043 236.663 100.375C235.216 101.709 234.492 103.746 234.492 106.488C234.492 109.155 235.216 111.173 236.663 112.544ZM266.357 119V93.7483H272.185V103.118H282.697V93.7483H288.524V119H282.697V108.374H272.185V119H266.357ZM319.358 93.7483H325.186V119H319.358V116.372C317.416 118.657 314.864 119.8 311.703 119.8C308.008 119.8 305.038 118.467 302.79 115.801C300.581 113.135 299.477 109.992 299.477 106.374C299.477 102.756 300.581 99.6328 302.79 97.0048C304.999 94.3768 307.989 93.0628 311.76 93.0628C315.035 93.0628 317.568 94.2816 319.358 96.7191V93.7483ZM312.617 98.3188C310.522 98.3188 308.808 99.0996 307.475 100.661C306.18 102.223 305.533 104.165 305.533 106.488C305.533 108.736 306.161 110.64 307.418 112.201C308.713 113.763 310.446 114.544 312.617 114.544C314.788 114.544 316.502 113.782 317.759 112.259C319.054 110.735 319.701 108.793 319.701 106.431C319.701 103.841 319.015 101.842 317.644 100.433C316.273 99.0234 314.597 98.3188 312.617 98.3188ZM349.624 93.7483H355.451V103.118L363.106 93.7483H370.19L360.364 105.289L371.105 119H363.792L355.451 107.802V119H349.624V107.802L341.282 119H333.97L344.71 105.289L334.884 93.7483H341.968L349.624 103.118V93.7483ZM398.544 93.7483H404.371V119H398.544V116.372C396.602 118.657 394.05 119.8 390.889 119.8C387.194 119.8 384.223 118.467 381.976 115.801C379.767 113.135 378.663 109.992 378.663 106.374C378.663 102.756 379.767 99.6328 381.976 97.0048C384.185 94.3768 387.175 93.0628 390.946 93.0628C394.221 93.0628 396.754 94.2816 398.544 96.7191V93.7483ZM391.803 98.3188C389.708 98.3188 387.994 99.0996 386.661 100.661C385.366 102.223 384.719 104.165 384.719 106.488C384.719 108.736 385.347 110.64 386.604 112.201C387.899 113.763 389.632 114.544 391.803 114.544C393.974 114.544 395.688 113.782 396.945 112.259C398.239 110.735 398.887 108.793 398.887 106.431C398.887 103.841 398.201 101.842 396.83 100.433C395.459 99.0234 393.783 98.3188 391.803 98.3188Z" fill="white"/>
</svg>
